<mxfile host="app.diagrams.net" modified="2021-08-22T03:19:35.539Z" agent="5.0 (X11; Linux x86_64) AppleWebKit/537.36 (KHTML, like Gecko) Chrome/92.0.4515.159 Safari/537.36" etag="AZF6ZY7BgCx9490iN-OG" version="14.9.8" type="github">
  <diagram name="Page-1" id="c4acf3e9-155e-7222-9cf6-157b1a14988f">
    <mxGraphModel dx="1138" dy="645" grid="1" gridSize="10" guides="1" tooltips="1" connect="1" arrows="1" fold="1" page="1" pageScale="1" pageWidth="850" pageHeight="1100" background="none" math="0" shadow="0">
      <root>
        <mxCell id="0" />
        <mxCell id="1" parent="0" />
        <mxCell id="17acba5748e5396b-1" value="frame" style="shape=umlFrame;whiteSpace=wrap;html=1;rounded=0;shadow=0;comic=0;labelBackgroundColor=none;strokeWidth=1;fontFamily=Verdana;fontSize=10;align=center;" parent="1" vertex="1">
          <mxGeometry x="15" y="20" width="820" height="1060" as="geometry" />
        </mxCell>
        <mxCell id="5d2195bd80daf111-18" value="&lt;p style=&quot;margin: 0px ; margin-top: 4px ; text-align: center&quot;&gt;&lt;i&gt;&amp;lt;&amp;lt;&lt;/i&gt;&lt;span data-lucid-type=&quot;application/vnd.lucid.text&quot; data-lucid-content=&quot;{&amp;#34;t&amp;#34;:&amp;#34;user-profile-signin-request.js&amp;#34;,&amp;#34;m&amp;#34;:[{&amp;#34;s&amp;#34;:0,&amp;#34;n&amp;#34;:&amp;#34;b&amp;#34;,&amp;#34;v&amp;#34;:true,&amp;#34;e&amp;#34;:30}]}&quot;&gt;&lt;span style=&quot;font-weight: bold&quot;&gt;user-profile-signin-request.js&lt;/span&gt;&lt;/span&gt;&lt;i&gt;&amp;gt;&amp;gt;&lt;/i&gt;&lt;br&gt;&lt;b&gt;Interface&lt;/b&gt;&lt;/p&gt;&lt;hr size=&quot;1&quot;&gt;&lt;p style=&quot;margin: 0px ; margin-left: 4px&quot;&gt;+ field1: Type&lt;br&gt;+ field2: Type&lt;/p&gt;&lt;hr size=&quot;1&quot;&gt;&lt;p style=&quot;margin: 0px ; margin-left: 4px&quot;&gt;+ toAPIModel(uiModel):return signinRequest&lt;/p&gt;&lt;p style=&quot;margin: 0px ; margin-left: 4px&quot;&gt;+ toAPIModelEmail(uiModel):return signinRequest&lt;/p&gt;" style="verticalAlign=top;align=left;overflow=fill;fontSize=12;fontFamily=Helvetica;html=1;rounded=0;shadow=0;comic=0;labelBackgroundColor=none;strokeWidth=1" parent="1" vertex="1">
          <mxGeometry x="60" y="87" width="280" height="123" as="geometry" />
        </mxCell>
        <mxCell id="3acq9EiNCCKWYIQhc1D9-9" value="imports" style="edgeStyle=orthogonalEdgeStyle;rounded=0;orthogonalLoop=1;jettySize=auto;html=1;dashed=1;entryX=1.013;entryY=0.167;entryDx=0;entryDy=0;entryPerimeter=0;" edge="1" parent="1" source="3acq9EiNCCKWYIQhc1D9-5" target="5d2195bd80daf111-18">
          <mxGeometry relative="1" as="geometry" />
        </mxCell>
        <mxCell id="3acq9EiNCCKWYIQhc1D9-5" value="&lt;&lt;api.js&gt;&gt;&#xa;API" style="swimlane;fontStyle=1;align=center;verticalAlign=top;childLayout=stackLayout;horizontal=1;startSize=40;horizontalStack=0;resizeParent=1;resizeParentMax=0;resizeLast=0;collapsible=1;marginBottom=0;" vertex="1" parent="1">
          <mxGeometry x="540" y="87" width="220" height="130" as="geometry" />
        </mxCell>
        <mxCell id="3acq9EiNCCKWYIQhc1D9-6" value="+ field: type" style="text;strokeColor=none;fillColor=none;align=left;verticalAlign=top;spacingLeft=4;spacingRight=4;overflow=hidden;rotatable=0;points=[[0,0.5],[1,0.5]];portConstraint=eastwest;" vertex="1" parent="3acq9EiNCCKWYIQhc1D9-5">
          <mxGeometry y="40" width="220" height="26" as="geometry" />
        </mxCell>
        <mxCell id="3acq9EiNCCKWYIQhc1D9-7" value="" style="line;strokeWidth=1;fillColor=none;align=left;verticalAlign=middle;spacingTop=-1;spacingLeft=3;spacingRight=3;rotatable=0;labelPosition=right;points=[];portConstraint=eastwest;" vertex="1" parent="3acq9EiNCCKWYIQhc1D9-5">
          <mxGeometry y="66" width="220" height="8" as="geometry" />
        </mxCell>
        <mxCell id="3acq9EiNCCKWYIQhc1D9-8" value="+ submitSigninForm(signinRequest, &#xa;captchaToken, pos)" style="text;strokeColor=none;fillColor=none;align=left;verticalAlign=top;spacingLeft=4;spacingRight=4;overflow=hidden;rotatable=0;points=[[0,0.5],[1,0.5]];portConstraint=eastwest;" vertex="1" parent="3acq9EiNCCKWYIQhc1D9-5">
          <mxGeometry y="74" width="220" height="56" as="geometry" />
        </mxCell>
        <mxCell id="3acq9EiNCCKWYIQhc1D9-34" value="&amp;nbsp;imports&amp;nbsp;" style="edgeStyle=orthogonalEdgeStyle;rounded=0;orthogonalLoop=1;jettySize=auto;html=1;dashed=1;fontSize=9;entryX=1;entryY=0.25;entryDx=0;entryDy=0;" edge="1" parent="1" source="3acq9EiNCCKWYIQhc1D9-22" target="3acq9EiNCCKWYIQhc1D9-30">
          <mxGeometry relative="1" as="geometry" />
        </mxCell>
        <mxCell id="3acq9EiNCCKWYIQhc1D9-22" value="&lt;&lt;user-profile-login-form.jsx&gt;&gt;&#xa;UserProfileLoginForm" style="swimlane;fontStyle=1;align=center;verticalAlign=top;childLayout=stackLayout;horizontal=1;startSize=40;horizontalStack=0;resizeParent=1;resizeParentMax=0;resizeLast=0;collapsible=1;marginBottom=0;fontSize=10;" vertex="1" parent="1">
          <mxGeometry x="370" y="690" width="200" height="184" as="geometry" />
        </mxCell>
        <mxCell id="3acq9EiNCCKWYIQhc1D9-23" value="Contiene los campos &#xa; clubPremierNumber&#xa; emailClubPremiernumber" style="text;strokeColor=none;fillColor=none;align=left;verticalAlign=top;spacingLeft=4;spacingRight=4;overflow=hidden;rotatable=0;points=[[0,0.5],[1,0.5]];portConstraint=eastwest;" vertex="1" parent="3acq9EiNCCKWYIQhc1D9-22">
          <mxGeometry y="40" width="200" height="50" as="geometry" />
        </mxCell>
        <mxCell id="3acq9EiNCCKWYIQhc1D9-24" value="" style="line;strokeWidth=1;fillColor=none;align=left;verticalAlign=middle;spacingTop=-1;spacingLeft=3;spacingRight=3;rotatable=0;labelPosition=right;points=[];portConstraint=eastwest;" vertex="1" parent="3acq9EiNCCKWYIQhc1D9-22">
          <mxGeometry y="90" width="200" height="8" as="geometry" />
        </mxCell>
        <mxCell id="3acq9EiNCCKWYIQhc1D9-25" value="+ renderClubPremierNumberInput()&#xa;+ renderPasswordInput()&#xa;+ renderPasswordLabel()&#xa;+ renderSubmitButton()&#xa;+ handleOnLocalSubmit()" style="text;strokeColor=none;fillColor=none;align=left;verticalAlign=top;spacingLeft=4;spacingRight=4;overflow=hidden;rotatable=0;points=[[0,0.5],[1,0.5]];portConstraint=eastwest;" vertex="1" parent="3acq9EiNCCKWYIQhc1D9-22">
          <mxGeometry y="98" width="200" height="86" as="geometry" />
        </mxCell>
        <mxCell id="3acq9EiNCCKWYIQhc1D9-30" value="&lt;&lt;user-profile-login-validation.js&gt;&gt;&#xa;interface" style="swimlane;fontStyle=1;align=center;verticalAlign=top;childLayout=stackLayout;horizontal=1;startSize=40;horizontalStack=0;resizeParent=1;resizeParentMax=0;resizeLast=0;collapsible=1;marginBottom=0;fontSize=10;" vertex="1" parent="1">
          <mxGeometry x="570" y="530" width="200" height="98" as="geometry" />
        </mxCell>
        <mxCell id="3acq9EiNCCKWYIQhc1D9-31" value="userProfileLoginValidationFields&#xa;userProfileLoginValidator&#xa;userProfileLoginValidation" style="text;strokeColor=none;fillColor=none;align=left;verticalAlign=top;spacingLeft=4;spacingRight=4;overflow=hidden;rotatable=0;points=[[0,0.5],[1,0.5]];portConstraint=eastwest;" vertex="1" parent="3acq9EiNCCKWYIQhc1D9-30">
          <mxGeometry y="40" width="200" height="50" as="geometry" />
        </mxCell>
        <mxCell id="3acq9EiNCCKWYIQhc1D9-32" value="" style="line;strokeWidth=1;fillColor=none;align=left;verticalAlign=middle;spacingTop=-1;spacingLeft=3;spacingRight=3;rotatable=0;labelPosition=right;points=[];portConstraint=eastwest;" vertex="1" parent="3acq9EiNCCKWYIQhc1D9-30">
          <mxGeometry y="90" width="200" height="8" as="geometry" />
        </mxCell>
        <mxCell id="3acq9EiNCCKWYIQhc1D9-45" value="&amp;nbsp;imports&amp;nbsp;" style="edgeStyle=orthogonalEdgeStyle;rounded=0;orthogonalLoop=1;jettySize=auto;html=1;entryX=-0.011;entryY=0.086;entryDx=0;entryDy=0;entryPerimeter=0;dashed=1;fontSize=9;" edge="1" parent="1" source="3acq9EiNCCKWYIQhc1D9-39" target="3acq9EiNCCKWYIQhc1D9-22">
          <mxGeometry relative="1" as="geometry" />
        </mxCell>
        <mxCell id="3acq9EiNCCKWYIQhc1D9-51" value="&amp;nbsp; imports&amp;nbsp;" style="edgeStyle=orthogonalEdgeStyle;rounded=0;orthogonalLoop=1;jettySize=auto;html=1;dashed=1;fontSize=9;exitX=0;exitY=0.5;exitDx=0;exitDy=0;" edge="1" parent="1" source="3acq9EiNCCKWYIQhc1D9-42" target="3acq9EiNCCKWYIQhc1D9-49">
          <mxGeometry relative="1" as="geometry" />
        </mxCell>
        <mxCell id="3acq9EiNCCKWYIQhc1D9-39" value="&lt;&lt;modal-login.jsx&gt;&gt;&#xa;ModalLogin" style="swimlane;fontStyle=1;align=center;verticalAlign=top;childLayout=stackLayout;horizontal=1;startSize=30;horizontalStack=0;resizeParent=1;resizeParentMax=0;resizeLast=0;collapsible=1;marginBottom=0;fontSize=9;" vertex="1" parent="1">
          <mxGeometry x="80" y="680" width="160" height="110" as="geometry" />
        </mxCell>
        <mxCell id="3acq9EiNCCKWYIQhc1D9-40" value="static propTypes" style="text;strokeColor=none;fillColor=none;align=left;verticalAlign=top;spacingLeft=4;spacingRight=4;overflow=hidden;rotatable=0;points=[[0,0.5],[1,0.5]];portConstraint=eastwest;" vertex="1" parent="3acq9EiNCCKWYIQhc1D9-39">
          <mxGeometry y="30" width="160" height="26" as="geometry" />
        </mxCell>
        <mxCell id="3acq9EiNCCKWYIQhc1D9-41" value="" style="line;strokeWidth=1;fillColor=none;align=left;verticalAlign=middle;spacingTop=-1;spacingLeft=3;spacingRight=3;rotatable=0;labelPosition=right;points=[];portConstraint=eastwest;" vertex="1" parent="3acq9EiNCCKWYIQhc1D9-39">
          <mxGeometry y="56" width="160" height="8" as="geometry" />
        </mxCell>
        <mxCell id="3acq9EiNCCKWYIQhc1D9-42" value="+ handleLoginSubmit(&#xa;    captchaToken = &quot;&quot;)" style="text;strokeColor=none;fillColor=none;align=left;verticalAlign=top;spacingLeft=4;spacingRight=4;overflow=hidden;rotatable=0;points=[[0,0.5],[1,0.5]];portConstraint=eastwest;" vertex="1" parent="3acq9EiNCCKWYIQhc1D9-39">
          <mxGeometry y="64" width="160" height="46" as="geometry" />
        </mxCell>
        <mxCell id="3acq9EiNCCKWYIQhc1D9-43" value="Distingue si el dato enciado es numero club premier o email" style="text;html=1;strokeColor=none;fillColor=none;align=center;verticalAlign=middle;whiteSpace=wrap;rounded=0;fontSize=9;" vertex="1" parent="1">
          <mxGeometry x="85" y="790" width="150" height="20" as="geometry" />
        </mxCell>
        <mxCell id="3acq9EiNCCKWYIQhc1D9-50" value="&amp;nbsp;imports&amp;nbsp;" style="edgeStyle=orthogonalEdgeStyle;rounded=0;orthogonalLoop=1;jettySize=auto;html=1;dashed=1;fontSize=9;" edge="1" parent="1" source="3acq9EiNCCKWYIQhc1D9-46" target="3acq9EiNCCKWYIQhc1D9-5">
          <mxGeometry relative="1" as="geometry" />
        </mxCell>
        <mxCell id="3acq9EiNCCKWYIQhc1D9-46" value="&lt;&lt;am-api-action-creators.js&gt;&gt;" style="swimlane;fontStyle=1;align=center;verticalAlign=top;childLayout=stackLayout;horizontal=1;startSize=26;horizontalStack=0;resizeParent=1;resizeParentMax=0;resizeLast=0;collapsible=1;marginBottom=0;fontSize=9;" vertex="1" parent="1">
          <mxGeometry x="70" y="240" width="280" height="240" as="geometry" />
        </mxCell>
        <mxCell id="3acq9EiNCCKWYIQhc1D9-48" value="" style="line;strokeWidth=1;fillColor=none;align=left;verticalAlign=middle;spacingTop=-1;spacingLeft=3;spacingRight=3;rotatable=0;labelPosition=right;points=[];portConstraint=eastwest;" vertex="1" parent="3acq9EiNCCKWYIQhc1D9-46">
          <mxGeometry y="26" width="280" height="54" as="geometry" />
        </mxCell>
        <mxCell id="3acq9EiNCCKWYIQhc1D9-49" value="retrieveUserProfileOnSignin(request, captchaToken = &#39;&#39;, pos)&#xa;&#xa;return {&#xa;    type: asyncActionTypes.RETRIEVE_USER_PROFILE_ON_SIGNIN,&#xa;    getPromise: () =&gt; API.submitSigninForm(request, captchaToken, pos),&#xa;    recreateSelf: () =&gt; retrieveUserProfileOnSignin(request, captchaToken, pos),&#xa;  };" style="text;strokeColor=none;fillColor=none;align=left;verticalAlign=top;spacingLeft=4;spacingRight=4;overflow=hidden;rotatable=0;points=[[0,0.5],[1,0.5]];portConstraint=eastwest;whiteSpace=wrap;" vertex="1" parent="3acq9EiNCCKWYIQhc1D9-46">
          <mxGeometry y="80" width="280" height="160" as="geometry" />
        </mxCell>
      </root>
    </mxGraphModel>
  </diagram>
</mxfile>
